<svg width="28" height="28" viewBox="0 0 28 28" fill="none" xmlns="http://www.w3.org/2000/svg">
<mask id="mask0_5771_103" style="mask-type:alpha" maskUnits="userSpaceOnUse" x="0" y="0" width="28" height="28">
<rect width="28" height="28" fill="#C4C4C4"/>
</mask>
<g mask="url(#mask0_5771_103)">
<path d="M24.2083 9.43374H19.6233L20.0573 4.44974C20.0993 3.96907 19.7423 3.54558 19.2617 3.50241C18.7752 3.46741 18.3563 3.81741 18.3143 4.29924L17.8675 9.43257H10.4942L10.9258 4.4509C10.969 3.96906 10.6108 3.54558 10.1325 3.50241C9.64251 3.46741 9.22601 3.81741 9.18401 4.29924L8.73834 9.43257H4.12067C3.63767 9.43257 3.24567 9.82574 3.24567 10.3076C3.24567 10.7894 3.63767 11.1826 4.12067 11.1826H8.58668L7.94501 18.5641H3.20834C2.72534 18.5641 2.33334 18.9561 2.33334 19.4391C2.33334 19.9221 2.72534 20.3141 3.20834 20.3141H7.79334L7.35934 25.2981C7.31734 25.7787 7.67434 26.2022 8.15501 26.2454L8.23201 26.2489C8.68118 26.2489 9.06268 25.9047 9.10235 25.4486L9.54917 20.3152H16.9225L16.4908 25.2969C16.4488 25.7787 16.8058 26.2022 17.2865 26.2454L17.3635 26.2489C17.8127 26.2489 18.1942 25.9047 18.2338 25.4486L18.6795 20.3152H23.296C23.7778 20.3152 24.171 19.9221 24.171 19.4402C24.171 18.9584 23.7778 18.5652 23.296 18.5652H18.83L19.4717 11.1837H24.2083C24.6913 11.1837 25.0833 10.7917 25.0833 10.3087C25.0833 9.82574 24.6913 9.43374 24.2083 9.43374ZM17.0742 18.5641H9.70085L10.3425 11.1837H17.7158L17.0742 18.5641Z" fill="black"/>
</g>
</svg>
