<svg width="28" height="28" viewBox="0 0 28 28" fill="none" xmlns="http://www.w3.org/2000/svg">
<mask id="mask0_8_721" style="mask-type:alpha" maskUnits="userSpaceOnUse" x="0" y="0" width="28" height="28">
<rect width="28" height="28" fill="#C4C4C4"/>
</mask>
<g mask="url(#mask0_8_721)">
<path d="M26.0287 8.80248L14.2419 2.43831C13.9817 2.29831 13.6702 2.29831 13.41 2.43831L1.62555 8.80248C1.20088 9.03232 1.04221 9.56315 1.27205 9.98898C1.42955 10.2806 1.73171 10.4475 2.04205 10.4475C2.18205 10.4475 2.32555 10.4125 2.45738 10.3425L3.40821 9.82914L5.30871 23.261C5.55838 24.6785 6.83471 25.6666 8.40971 25.6666H19.2387C20.816 25.6666 22.0912 24.6773 22.3455 23.2318L24.2425 9.82681L25.1969 10.3425C25.6215 10.5676 26.1535 10.4125 26.3834 9.98781C26.612 9.56431 26.4534 9.03348 26.0287 8.80248ZM20.6177 22.9576C20.4929 23.6646 19.7975 23.9166 19.241 23.9166H8.41205C7.85205 23.9166 7.15788 23.6646 7.03771 22.9856L5.05205 8.94248L13.8254 4.20348L22.601 8.94014L20.6177 22.9576Z" fill="black"/>
<path d="M9.41535 14.1854C9.41535 16.6168 11.3929 18.5954 13.8254 18.5954C16.2579 18.5954 18.2354 16.6168 18.2354 14.1854C18.2354 11.7541 16.2579 9.77544 13.8254 9.77544C11.3929 9.77544 9.41535 11.7541 9.41535 14.1854ZM16.4854 14.1854C16.4854 15.6531 15.293 16.8454 13.8254 16.8454C12.3577 16.8454 11.1654 15.6531 11.1654 14.1854C11.1654 12.7178 12.3577 11.5254 13.8254 11.5254C15.293 11.5254 16.4854 12.7178 16.4854 14.1854Z" fill="black"/>
</g>
</svg>
