<svg width="28" height="28" viewBox="0 0 28 28" fill="none" xmlns="http://www.w3.org/2000/svg">
<mask id="mask0_5771_183" style="mask-type:alpha" maskUnits="userSpaceOnUse" x="0" y="0" width="28" height="28">
<rect width="28" height="28" fill="#C4C4C4"/>
</mask>
<g mask="url(#mask0_5771_183)">
<path d="M18.9583 11.6667C17.8325 11.6667 16.9167 12.5848 16.9167 13.7083C16.9167 14.8318 17.8313 15.75 18.9583 15.75C20.083 15.75 21 14.833 21 13.7083C21 12.5837 20.083 11.6667 18.9583 11.6667ZM18.9583 14.5833C18.4753 14.5833 18.0833 14.1913 18.0833 13.7083C18.0833 13.2265 18.4765 12.8333 18.9583 12.8333C19.4402 12.8333 19.8333 13.2253 19.8333 13.7083C19.8333 14.1902 19.4413 14.5833 18.9583 14.5833ZM13.7083 11.6667C12.5813 11.6667 11.6667 12.5848 11.6667 13.7083C11.6667 14.8318 12.5825 15.75 13.7083 15.75C14.8342 15.75 15.75 14.833 15.75 13.7083C15.75 12.5837 14.8353 11.6667 13.7083 11.6667ZM13.7083 14.5833C13.2253 14.5833 12.8333 14.1913 12.8333 13.7083C12.8333 13.2265 13.2265 12.8333 13.7083 12.8333C14.1902 12.8333 14.5833 13.2253 14.5833 13.7083C14.5833 14.1902 14.1913 14.5833 13.7083 14.5833ZM8.45832 11.6667C7.33249 11.6667 6.41666 12.5848 6.41666 13.7083C6.41666 14.8318 7.33249 15.75 8.45832 15.75C9.58299 15.75 10.5 14.833 10.5 13.7083C10.5 12.5837 9.58182 11.6667 8.45832 11.6667ZM8.45832 14.5833C7.97532 14.5833 7.58332 14.1913 7.58332 13.7083C7.58332 13.2265 7.97649 12.8333 8.45832 12.8333C8.94016 12.8333 9.33332 13.2253 9.33332 13.7083C9.33332 14.1902 8.94132 14.5833 8.45832 14.5833Z" fill="black"/>
<path d="M13.7083 26.25C6.79232 26.25 1.16666 20.6243 1.16666 13.7083C1.16666 6.79232 6.79232 1.16666 13.7083 1.16666C20.6243 1.16666 26.25 6.79232 26.25 13.7083C26.25 20.6243 20.6243 26.25 13.7083 26.25ZM13.7083 2.91666C7.75832 2.91666 2.91666 7.75832 2.91666 13.7083C2.91666 19.6583 7.75832 24.5 13.7083 24.5C19.6583 24.5 24.5 19.6583 24.5 13.7083C24.5 7.75832 19.6583 2.91666 13.7083 2.91666Z" fill="black"/>
</g>
</svg>
