<svg width="28" height="28" viewBox="0 0 28 28" fill="none" xmlns="http://www.w3.org/2000/svg">
<mask id="mask0_5771_42" style="mask-type:alpha" maskUnits="userSpaceOnUse" x="0" y="0" width="28" height="28">
<rect width="28" height="28" fill="#C4C4C4"/>
</mask>
<g mask="url(#mask0_5771_42)">
<path d="M13.9703 14.1878C12.3883 14.1878 10.6196 14.0128 9.49026 12.7225C8.54059 11.6375 8.23376 9.95981 8.5511 7.59848C8.99443 4.30148 11.0198 2.33331 13.9714 2.33331C16.9231 2.33331 18.9496 4.30148 19.3918 7.59848C19.7091 9.95981 19.4011 11.6351 18.4514 12.7225C17.3198 14.0128 15.5523 14.1867 13.9714 14.1867L13.9703 14.1878ZM20.7941 25.6795H7.14643C6.37293 25.6795 5.6881 25.3528 5.22143 24.7625C4.7291 24.1395 4.54943 23.2808 4.7431 22.4665C5.7161 18.3482 9.51009 15.47 13.9691 15.47C18.4281 15.47 22.2221 18.347 23.1974 22.4665C23.3888 23.2808 23.2091 24.1395 22.7168 24.7613C22.2501 25.3505 21.5676 25.6771 20.7941 25.6771V25.6795Z" fill="black"/>
</g>
</svg>
