<svg width="140.000000" height="28.000000" viewBox="0 0 140 28" fill="none" xmlns="http://www.w3.org/2000/svg" xmlns:xlink="http://www.w3.org/1999/xlink">
	<desc>
			Created with Pixso.
	</desc>
	<defs/>
	<mask id="mask8_117" mask-type="alpha" maskUnits="userSpaceOnUse" x="0.000000" y="0.000000" width="28.000000" height="28.000000">
		<rect id="Rectangle 9" width="28.000000" height="28.000000" fill="#C4C4C4" fill-opacity="1.000000"/>
	</mask>
	<g mask="url(#mask8_117)">
		<path id="Vector" d="M22.8083 25.8416C22.6252 25.8416 22.4443 25.7833 22.2927 25.6736L13.5917 19.3409L4.89066 25.676C4.62466 25.8673 4.27231 25.8976 3.97833 25.746C3.68665 25.5978 3.5 25.2968 3.5 24.9678L3.5 4.95831C3.5 3.51166 4.67834 2.33331 6.125 2.33331L21.056 2.33331C22.5027 2.33331 23.681 3.51166 23.681 4.95831L23.681 24.9666C23.681 25.2957 23.4967 25.5966 23.2027 25.746C23.079 25.8101 22.9425 25.8416 22.806 25.8416L22.8083 25.8416ZM13.5917 17.3833C13.7725 17.3833 13.9533 17.4393 14.105 17.5513L21.9333 23.2481L21.9333 4.95831C21.9333 4.47766 21.5402 4.08331 21.0583 4.08331L6.125 4.08331C5.64316 4.08331 5.25 4.47766 5.25 4.95831L5.25 23.2481L13.0783 17.5513C13.23 17.4393 13.4108 17.3833 13.5917 17.3833Z" fill="#000000" fill-opacity="1.000000" fill-rule="nonzero"/>
	</g>
	<path id="Home" d="M49.5557 21.4531L49.5557 8.84961L53.5547 8.84961C54.7734 8.84961 55.7373 9.11621 56.4463 9.64941C57.1611 10.1826 57.5186 10.877 57.5186 11.7324C57.5186 12.4473 57.3164 13.0684 56.9121 13.5957C56.5078 14.123 55.9482 14.498 55.2334 14.7207L55.2334 14.7559C56.1006 14.8555 56.792 15.1777 57.3076 15.7227C57.8291 16.2617 58.0898 16.9648 58.0898 17.832C58.0898 18.9102 57.665 19.7832 56.8154 20.4512C55.9658 21.1191 54.8936 21.4531 53.5986 21.4531L49.5557 21.4531ZM51.6387 10.5283L51.6387 14.1143L52.9922 14.1143C53.7188 14.1143 54.2871 13.9443 54.6973 13.6045C55.1133 13.2588 55.3213 12.7725 55.3213 12.1455C55.3213 11.0674 54.6006 10.5283 53.1592 10.5283L51.6387 10.5283ZM51.6387 15.793L51.6387 19.7832L53.4229 19.7832C54.2021 19.7832 54.8027 19.6045 55.2246 19.2471C55.6523 18.8838 55.8662 18.3857 55.8662 17.7529C55.8662 16.4463 54.9609 15.793 53.1504 15.793L51.6387 15.793ZM64.1982 21.6641C62.8096 21.6641 61.6992 21.2451 60.8672 20.4072C60.041 19.5635 59.6279 18.4473 59.6279 17.0586C59.6279 15.5469 60.0586 14.3662 60.9199 13.5166C61.7871 12.667 62.9531 12.2422 64.418 12.2422C65.8242 12.2422 66.9199 12.6553 67.7051 13.4814C68.4902 14.3076 68.8828 15.4531 68.8828 16.918C68.8828 18.3535 68.458 19.5049 67.6084 20.3721C66.7646 21.2334 65.6279 21.6641 64.1982 21.6641ZM64.2949 13.8682C63.498 13.8682 62.8682 14.1465 62.4053 14.7031C61.9424 15.2598 61.7109 16.0273 61.7109 17.0059C61.7109 17.9492 61.9453 18.6934 62.4141 19.2383C62.8828 19.7773 63.5098 20.0469 64.2949 20.0469C65.0977 20.0469 65.7129 19.7803 66.1406 19.2471C66.5742 18.7139 66.791 17.9551 66.791 16.9707C66.791 15.9805 66.5742 15.2158 66.1406 14.6768C65.7129 14.1377 65.0977 13.8682 64.2949 13.8682ZM74.9561 21.6641C73.5674 21.6641 72.457 21.2451 71.625 20.4072C70.7988 19.5635 70.3857 18.4473 70.3857 17.0586C70.3857 15.5469 70.8164 14.3662 71.6777 13.5166C72.5449 12.667 73.7109 12.2422 75.1758 12.2422C76.582 12.2422 77.6777 12.6553 78.4629 13.4814C79.248 14.3076 79.6406 15.4531 79.6406 16.918C79.6406 18.3535 79.2158 19.5049 78.3662 20.3721C77.5225 21.2334 76.3857 21.6641 74.9561 21.6641ZM75.0527 13.8682C74.2559 13.8682 73.626 14.1465 73.1631 14.7031C72.7002 15.2598 72.4688 16.0273 72.4688 17.0059C72.4688 17.9492 72.7031 18.6934 73.1719 19.2383C73.6406 19.7773 74.2676 20.0469 75.0527 20.0469C75.8555 20.0469 76.4707 19.7803 76.8984 19.2471C77.332 18.7139 77.5488 17.9551 77.5488 16.9707C77.5488 15.9805 77.332 15.2158 76.8984 14.6768C76.4707 14.1377 75.8555 13.8682 75.0527 13.8682ZM89.8887 21.4531L87.3047 21.4531L83.8066 17.1289L83.7715 17.1289L83.7715 21.4531L81.7236 21.4531L81.7236 8.12891L83.7715 8.12891L83.7715 16.5752L83.8066 16.5752L87.1113 12.4531L89.5635 12.4531L85.8457 16.7949L89.8887 21.4531ZM104.637 21.4531L102.598 21.4531L102.598 16.5488C102.598 15.6055 102.463 14.9229 102.193 14.501C101.93 14.0791 101.481 13.8682 100.849 13.8682C100.315 13.8682 99.8613 14.1348 99.4863 14.668C99.1172 15.2012 98.9326 15.8398 98.9326 16.584L98.9326 21.4531L96.8848 21.4531L96.8848 16.3818C96.8848 14.7061 96.293 13.8682 95.1094 13.8682C94.5586 13.8682 94.1045 14.1201 93.7471 14.624C93.3955 15.1279 93.2197 15.7812 93.2197 16.584L93.2197 21.4531L91.1807 21.4531L91.1807 12.4531L93.2197 12.4531L93.2197 13.877L93.2549 13.877C93.9053 12.7871 94.8516 12.2422 96.0938 12.2422C96.7148 12.2422 97.2568 12.415 97.7197 12.7607C98.1885 13.1006 98.5078 13.5488 98.6777 14.1055C99.3457 12.8633 100.342 12.2422 101.666 12.2422C103.646 12.2422 104.637 13.4639 104.637 15.9072L104.637 21.4531ZM114.032 21.4531L112.055 21.4531L112.055 20.0469L112.02 20.0469C111.398 21.125 110.487 21.6641 109.286 21.6641C108.401 21.6641 107.707 21.4238 107.203 20.9434C106.705 20.4629 106.456 19.8271 106.456 19.0361C106.456 17.3369 107.435 16.3467 109.392 16.0654L112.063 15.6875C112.063 14.4043 111.454 13.7627 110.235 13.7627C109.163 13.7627 108.196 14.1318 107.335 14.8701L107.335 13.0859C108.284 12.5234 109.38 12.2422 110.622 12.2422C112.896 12.2422 114.032 13.3613 114.032 15.5996L114.032 21.4531ZM112.063 17.0322L110.174 17.2959C109.588 17.3721 109.146 17.5156 108.847 17.7266C108.554 17.9316 108.407 18.2949 108.407 18.8164C108.407 19.1973 108.542 19.5107 108.812 19.7568C109.087 19.9971 109.453 20.1172 109.91 20.1172C110.531 20.1172 111.044 19.9004 111.448 19.4668C111.858 19.0273 112.063 18.4766 112.063 17.8145L112.063 17.0322ZM121.749 14.3955C121.503 14.2021 121.148 14.1055 120.686 14.1055C120.082 14.1055 119.578 14.3779 119.174 14.9229C118.77 15.4678 118.567 16.209 118.567 17.1465L118.567 21.4531L116.528 21.4531L116.528 12.4531L118.567 12.4531L118.567 14.3076L118.603 14.3076C118.802 13.6748 119.106 13.1826 119.517 12.8311C119.933 12.4736 120.396 12.2949 120.905 12.2949C121.274 12.2949 121.556 12.3506 121.749 12.4619L121.749 14.3955ZM131.355 21.4531L128.771 21.4531L125.273 17.1289L125.238 17.1289L125.238 21.4531L123.19 21.4531L123.19 8.12891L125.238 8.12891L125.238 16.5752L125.273 16.5752L128.578 12.4531L131.03 12.4531L127.312 16.7949L131.355 21.4531ZM132.085 21.1719L132.085 19.2822C132.847 19.8623 133.688 20.1523 134.607 20.1523C135.838 20.1523 136.453 19.7891 136.453 19.0625C136.453 18.8574 136.4 18.6846 136.295 18.5439C136.189 18.3975 136.046 18.2686 135.864 18.1572C135.688 18.0459 135.478 17.9463 135.231 17.8584C134.991 17.7705 134.722 17.6709 134.423 17.5596C134.054 17.4131 133.72 17.2578 133.421 17.0938C133.128 16.9297 132.882 16.7451 132.683 16.54C132.489 16.3291 132.343 16.0918 132.243 15.8281C132.144 15.5645 132.094 15.2568 132.094 14.9053C132.094 14.4717 132.196 14.0908 132.401 13.7627C132.606 13.4287 132.882 13.1504 133.228 12.9277C133.573 12.6992 133.966 12.5293 134.405 12.418C134.845 12.3008 135.299 12.2422 135.768 12.2422C136.6 12.2422 137.344 12.3682 138 12.6201L138 14.4043C137.367 13.9707 136.641 13.7539 135.82 13.7539C135.562 13.7539 135.328 13.7803 135.117 13.833C134.912 13.8857 134.736 13.959 134.59 14.0527C134.443 14.1465 134.329 14.2607 134.247 14.3955C134.165 14.5244 134.124 14.668 134.124 14.8262C134.124 15.0195 134.165 15.1836 134.247 15.3184C134.329 15.4531 134.449 15.5732 134.607 15.6787C134.771 15.7783 134.965 15.8721 135.188 15.96C135.416 16.042 135.677 16.1328 135.97 16.2324C136.356 16.3906 136.702 16.5518 137.007 16.7158C137.317 16.8799 137.581 17.0674 137.798 17.2783C138.015 17.4834 138.182 17.7236 138.299 17.999C138.416 18.2686 138.475 18.5908 138.475 18.9658C138.475 19.4229 138.369 19.8213 138.158 20.1611C137.947 20.501 137.666 20.7822 137.314 21.0049C136.963 21.2275 136.556 21.3916 136.093 21.4971C135.636 21.6084 135.152 21.6641 134.643 21.6641C133.658 21.6641 132.806 21.5 132.085 21.1719Z" fill="#000000" fill-opacity="1.000000" fill-rule="evenodd"/>
</svg>
