<svg width="19.750000" height="19.750000" viewBox="0 0 19.75 19.75" fill="none" xmlns="http://www.w3.org/2000/svg" xmlns:xlink="http://www.w3.org/1999/xlink">
	<desc>
			Created with Pixso.
	</desc>
	<defs/>
	<path id="Vector" d="M11.95 0.0100098L7.802 0L7.80005 0C3.42603 0 0 3.427 0 7.802C0 11.9 3.18604 15.008 7.46497 15.172L7.46497 19C7.46497 19.108 7.50903 19.286 7.58496 19.403C7.72705 19.628 7.96899 19.75 8.21704 19.75C8.35498 19.75 8.49402 19.712 8.61902 19.632C8.88293 19.464 15.092 15.492 16.707 14.126C18.609 12.516 19.7469 10.156 19.75 7.81403L19.75 7.797C19.744 3.42999 16.3199 0.0100098 11.95 0.00897217L11.95 0.0100098ZM15.7369 12.982C14.603 13.942 10.875 16.387 8.96497 17.625L8.96497 14.438C8.96497 14.024 8.63 13.688 8.21497 13.688L7.81897 13.688C4.15906 13.688 1.50098 11.212 1.50098 7.802C1.50098 4.26801 4.26904 1.5 7.80103 1.5L11.948 1.51001L11.95 1.51001C15.4819 1.51001 18.25 4.276 18.252 7.80603C18.249 9.716 17.3099 11.65 15.738 12.982L15.7369 12.982Z" fill="#536471" fill-opacity="1.000000" fill-rule="nonzero"/>
</svg>
