<svg width="24" height="24" viewBox="0 0 24 24" fill="none" xmlns="http://www.w3.org/2000/svg">
<path d="M19.708 2H4.292C3.028 2 2 3.028 2 4.292V19.708C2 20.972 3.028 22 4.292 22H19.708C20.972 22 22 20.972 22 19.708V4.292C22 3.028 20.972 2 19.708 2ZM20.5 19.708C20.5 20.145 20.145 20.5 19.708 20.5H4.292C3.855 20.5 3.5 20.145 3.5 19.708V6.418C3.5 5.981 3.854 5.628 4.29 5.626H19.71C20.146 5.626 20.5 5.981 20.5 6.416V19.71V19.708Z" fill="black"/>
<path d="M7.03201 10.035C7.7417 10.035 8.31701 9.45968 8.31701 8.75C8.31701 8.04031 7.7417 7.465 7.03201 7.465C6.32232 7.465 5.74701 8.04031 5.74701 8.75C5.74701 9.45968 6.32232 10.035 7.03201 10.035Z" fill="black"/>
<path d="M7.03201 14.441C7.7417 14.441 8.31701 13.8657 8.31701 13.156C8.31701 12.4463 7.7417 11.871 7.03201 11.871C6.32232 11.871 5.74701 12.4463 5.74701 13.156C5.74701 13.8657 6.32232 14.441 7.03201 14.441Z" fill="black"/>
<path d="M16.968 10.035C17.6777 10.035 18.253 9.45968 18.253 8.75C18.253 8.04031 17.6777 7.465 16.968 7.465C16.2583 7.465 15.683 8.04031 15.683 8.75C15.683 9.45968 16.2583 10.035 16.968 10.035Z" fill="black"/>
<path d="M16.968 14.441C17.6777 14.441 18.253 13.8657 18.253 13.156C18.253 12.4463 17.6777 11.871 16.968 11.871C16.2583 11.871 15.683 12.4463 15.683 13.156C15.683 13.8657 16.2583 14.441 16.968 14.441Z" fill="black"/>
<path d="M12 10.035C12.7097 10.035 13.285 9.45968 13.285 8.75C13.285 8.04031 12.7097 7.465 12 7.465C11.2903 7.465 10.715 8.04031 10.715 8.75C10.715 9.45968 11.2903 10.035 12 10.035Z" fill="black"/>
<path d="M12 14.441C12.7097 14.441 13.285 13.8657 13.285 13.156C13.285 12.4463 12.7097 11.871 12 11.871C11.2903 11.871 10.715 12.4463 10.715 13.156C10.715 13.8657 11.2903 14.441 12 14.441Z" fill="black"/>
<path d="M7.03201 18.771C7.7417 18.771 8.31701 18.1957 8.31701 17.486C8.31701 16.7763 7.7417 16.201 7.03201 16.201C6.32232 16.201 5.74701 16.7763 5.74701 17.486C5.74701 18.1957 6.32232 18.771 7.03201 18.771Z" fill="black"/>
<path d="M12 18.771C12.7097 18.771 13.285 18.1957 13.285 17.486C13.285 16.7763 12.7097 16.201 12 16.201C11.2903 16.201 10.715 16.7763 10.715 17.486C10.715 18.1957 11.2903 18.771 12 18.771Z" fill="black"/>
</svg>
