<svg width="17.000000" height="4.000000" viewBox="0 0 17 4" fill="none" xmlns="http://www.w3.org/2000/svg" xmlns:xlink="http://www.w3.org/1999/xlink">
	<desc>
			Created with Pixso.
	</desc>
	<defs/>
	<path id="Vector" d="M3.9231 2C3.9231 3.10457 3.04492 4 1.96143 4C0.878174 4 0 3.10457 0 2C0 0.895432 0.878174 0 1.96143 0C3.04492 0 3.9231 0.895432 3.9231 2ZM10.4614 2C10.4614 3.10457 9.58325 4 8.5 4C7.41675 4 6.53857 3.10457 6.53857 2C6.53857 0.895432 7.41675 0 8.5 0C9.58325 0 10.4614 0.895432 10.4614 2ZM15.0386 4C16.1218 4 17 3.10457 17 2C17 0.895432 16.1218 0 15.0386 0C13.9551 0 13.0769 0.895432 13.0769 2C13.0769 3.10457 13.9551 4 15.0386 4Z" fill="#000000" fill-opacity="1.000000" fill-rule="evenodd"/>
</svg>
