<svg width="109.000000" height="28.000000" viewBox="0 0 109 28" fill="none" xmlns="http://www.w3.org/2000/svg" xmlns:xlink="http://www.w3.org/1999/xlink">
	<desc>
			Created with Pixso.
	</desc>
	<defs/>
	<mask id="mask8_105" mask-type="alpha" maskUnits="userSpaceOnUse" x="0.000000" y="0.000000" width="28.000000" height="28.000000">
		<rect id="Rectangle 7" width="28.000000" height="28.000000" fill="#C4C4C4" fill-opacity="1.000000"/>
	</mask>
	<g mask="url(#mask8_105)">
		<path id="Vector" d="M24.2083 9.43372L19.6233 9.43372L20.0573 4.44977C20.0993 3.96906 19.7423 3.54559 19.2617 3.50238C18.7751 3.46741 18.3563 3.81738 18.3143 4.29926L17.8675 9.43256L10.4941 9.43256L10.9258 4.45087C10.969 3.96906 10.6108 3.54559 10.1325 3.50238C9.64249 3.46741 9.22598 3.81738 9.18399 4.29926L8.73831 9.43256L4.12064 9.43256C3.63763 9.43256 3.24564 9.82574 3.24564 10.3076C3.24564 10.7894 3.63763 11.1826 4.12064 11.1826L8.58664 11.1826L7.94498 18.5641L3.20831 18.5641C2.72531 18.5641 2.33331 18.9561 2.33331 19.4391C2.33331 19.9221 2.72531 20.3141 3.20831 20.3141L7.7933 20.3141L7.35931 25.2981C7.31732 25.7787 7.67432 26.2022 8.15497 26.2454L8.23199 26.2489C8.68115 26.2489 9.06265 25.9047 9.10233 25.4485L9.54913 20.3152L16.9225 20.3152L16.4908 25.2969C16.4488 25.7787 16.8058 26.2022 17.2865 26.2454L17.3635 26.2489C17.8127 26.2489 18.1942 25.9047 18.2338 25.4485L18.6795 20.3152L23.296 20.3152C23.7778 20.3152 24.171 19.9221 24.171 19.4402C24.171 18.9584 23.7778 18.5652 23.296 18.5652L18.83 18.5652L19.4716 11.1837L24.2083 11.1837C24.6913 11.1837 25.0833 10.7917 25.0833 10.3087C25.0833 9.82574 24.6913 9.43372 24.2083 9.43372ZM17.0742 18.5641L9.70081 18.5641L10.3425 11.1837L17.7158 11.1837L17.0742 18.5641Z" fill="#000000" fill-opacity="1.000000" fill-rule="nonzero"/>
	</g>
	<path id="Home" d="M56.6309 21.4531L49.5557 21.4531L49.5557 8.84961L56.3496 8.84961L56.3496 10.625L51.6475 10.625L51.6475 14.1934L55.9805 14.1934L55.9805 15.96L51.6475 15.96L51.6475 19.6865L56.6309 19.6865L56.6309 21.4531ZM66.167 12.4531L63.1699 17.0059L66.1318 21.4531L63.7676 21.4531L62.1855 18.667C62.0859 18.4971 61.9688 18.2803 61.834 18.0166L61.7988 18.0166C61.7754 18.0693 61.6523 18.2861 61.4297 18.667L59.8213 21.4531L57.4658 21.4531L60.5244 17.041L57.624 12.4531L59.9971 12.4531L61.5527 15.3799C61.6699 15.5967 61.7842 15.8193 61.8955 16.0479L61.9219 16.0479L63.9346 12.4531L66.167 12.4531ZM69.7354 20.126L69.7002 20.126L69.7002 25.5928L67.6611 25.5928L67.6611 12.4531L69.7002 12.4531L69.7002 14.0352L69.7354 14.0352C70.4326 12.8398 71.4521 12.2422 72.7939 12.2422C73.9365 12.2422 74.8271 12.6436 75.4658 13.4463C76.1045 14.249 76.4238 15.3271 76.4238 16.6807C76.4238 18.1807 76.0635 19.3818 75.3428 20.2842C74.6221 21.1865 73.6377 21.6377 72.3896 21.6377C71.2412 21.6377 70.3564 21.1338 69.7354 20.126ZM69.6826 16.5752L69.6826 17.6914C69.6826 18.3477 69.8906 18.9043 70.3066 19.3613C70.7285 19.8184 71.2617 20.0469 71.9062 20.0469C72.6621 20.0469 73.2539 19.7539 73.6816 19.168C74.1152 18.5762 74.332 17.7529 74.332 16.6982C74.332 15.8135 74.1299 15.1221 73.7256 14.624C73.3271 14.1201 72.7852 13.8682 72.0996 13.8682C71.373 13.8682 70.7871 14.126 70.3418 14.6416C69.9023 15.1572 69.6826 15.8018 69.6826 16.5752ZM80.5547 21.4531L78.5068 21.4531L78.5068 8.12891L80.5547 8.12891L80.5547 21.4531ZM87.208 21.6641C85.8193 21.6641 84.709 21.2451 83.877 20.4072C83.0508 19.5635 82.6377 18.4473 82.6377 17.0586C82.6377 15.5469 83.0684 14.3662 83.9297 13.5166C84.7969 12.667 85.9629 12.2422 87.4277 12.2422C88.834 12.2422 89.9297 12.6553 90.7148 13.4814C91.5 14.3076 91.8926 15.4531 91.8926 16.918C91.8926 18.3535 91.4678 19.5049 90.6182 20.3721C89.7744 21.2334 88.6377 21.6641 87.208 21.6641ZM87.3047 13.8682C86.5078 13.8682 85.8779 14.1465 85.415 14.7031C84.9521 15.2598 84.7207 16.0273 84.7207 17.0059C84.7207 17.9492 84.9551 18.6934 85.4238 19.2383C85.8926 19.7773 86.5195 20.0469 87.3047 20.0469C88.1074 20.0469 88.7227 19.7803 89.1504 19.2471C89.584 18.7139 89.8008 17.9551 89.8008 16.9707C89.8008 15.9805 89.584 15.2158 89.1504 14.6768C88.7227 14.1377 88.1074 13.8682 87.3047 13.8682ZM99.1963 14.3955C98.9502 14.2021 98.5957 14.1055 98.1328 14.1055C97.5293 14.1055 97.0254 14.3779 96.6211 14.9229C96.2168 15.4678 96.0146 16.209 96.0146 17.1465L96.0146 21.4531L93.9756 21.4531L93.9756 12.4531L96.0146 12.4531L96.0146 14.3076L96.0498 14.3076C96.249 13.6748 96.5537 13.1826 96.9639 12.8311C97.3799 12.4736 97.8428 12.2949 98.3525 12.2949C98.7217 12.2949 99.0029 12.3506 99.1963 12.4619L99.1963 14.3955ZM108.258 17.5068L102.123 17.5068C102.146 18.3389 102.401 18.9805 102.888 19.4316C103.38 19.8828 104.054 20.1084 104.909 20.1084C105.87 20.1084 106.752 19.8213 107.555 19.2471L107.555 20.8906C106.734 21.4062 105.65 21.6641 104.303 21.6641C102.979 21.6641 101.938 21.2568 101.183 20.4424C100.433 19.6221 100.058 18.4707 100.058 16.9883C100.058 15.5879 100.471 14.4482 101.297 13.5693C102.129 12.6846 103.16 12.2422 104.391 12.2422C105.621 12.2422 106.573 12.6377 107.247 13.4287C107.921 14.2197 108.258 15.3184 108.258 16.7246L108.258 17.5068ZM106.289 16.0654C106.283 15.333 106.11 14.7646 105.771 14.3604C105.431 13.9502 104.962 13.7451 104.364 13.7451C103.778 13.7451 103.28 13.959 102.87 14.3867C102.466 14.8145 102.217 15.374 102.123 16.0654L106.289 16.0654Z" fill="#000000" fill-opacity="1.000000" fill-rule="evenodd"/>
</svg>
