<svg width="21.500000" height="20.000000" viewBox="0 0 21.5 20" fill="none" xmlns="http://www.w3.org/2000/svg" xmlns:xlink="http://www.w3.org/1999/xlink">
	<desc>
			Created with Pixso.
	</desc>
	<defs/>
	<path id="Vector" d="M2.25 0L19.25 0C20.49 0 21.5 1.00702 21.5 2.24701L21.5 17.754C21.5 18.992 20.49 20 19.25 20L2.25 20C1.01001 20 0 18.992 0 17.754L0 2.24701C0 1.00702 1.01001 0 2.25 0ZM19.25 18.5C19.6639 18.5 20 18.164 20 17.754L20 2.24701C20 1.83502 19.6639 1.5 19.25 1.5L2.25 1.5C1.83606 1.5 1.5 1.83502 1.5 2.24701L1.5 17.754C1.5 18.164 1.83606 18.5 2.25 18.5L19.25 18.5ZM8.04993 8.88C7.74988 8.58002 7.24988 8.38 6.84985 8.38C5.94995 8.38 5.24988 9.18005 5.24988 9.98004C5.24988 10.88 5.94995 11.58 6.84985 11.58C7.1499 11.58 7.44995 11.48 7.6499 11.38L7.6499 10.78L6.44995 10.78L6.44995 9.58002L9.24988 9.58002L9.24988 12.08C8.6499 12.78 7.84985 13.1801 6.84985 13.1801C5.04993 13.1801 3.6499 11.78 3.6499 9.98004C3.6499 8.18005 5.04993 6.78003 6.84985 6.78003C7.74988 6.78003 8.6499 7.18005 9.24988 7.88L8.04993 8.88ZM12.1499 6.78003L10.45 6.78003L10.45 13.1801L12.1499 13.1801L12.1499 6.78003ZM17.7499 6.78003L17.7499 8.48004L15.0499 8.48004L15.0499 9.48004L17.0499 9.48004L17.0499 11.1801L15.0499 11.1801L15.0499 13.1801L13.3499 13.1801L13.3499 6.78003L17.7499 6.78003Z" fill="#1D9BF0" fill-opacity="1.000000" fill-rule="evenodd"/>
</svg>
