<svg width="98.000000" height="28.000000" viewBox="0 0 98 28" fill="none" xmlns="http://www.w3.org/2000/svg" xmlns:xlink="http://www.w3.org/1999/xlink">
	<desc>
			Created with Pixso.
	</desc>
	<defs/>
	<mask id="mask8_45" mask-type="alpha" maskUnits="userSpaceOnUse" x="0.000000" y="0.000000" width="28.000000" height="28.000000">
		<rect id="Rectangle 5" width="28.000000" height="28.000000" fill="#C4C4C4" fill-opacity="1.000000"/>
	</mask>
	<g mask="url(#mask8_45)">
		<path id="Vector" d="M14.2419 2.43829L26.0287 8.80249C26.4534 9.03351 26.6121 9.56433 26.3834 9.98779C26.1536 10.4125 25.6216 10.5676 25.1969 10.3425L24.2426 9.82678L22.3456 23.2318C22.0912 24.6773 20.8161 25.6666 19.2387 25.6666L8.40976 25.6666C6.83475 25.6666 5.55841 24.6785 5.30875 23.261L3.40823 9.82916L2.4574 10.3425C2.32559 10.4125 2.18207 10.4474 2.04208 10.4474C1.73175 10.4474 1.42957 10.2806 1.27206 9.98895C1.04224 9.56317 1.2009 9.03229 1.62558 8.80249L13.4101 2.43829C13.6703 2.29834 13.9818 2.29834 14.2419 2.43829ZM19.2411 23.9166C19.7976 23.9166 20.4929 23.6647 20.6177 22.9576L22.6011 8.94012L13.8254 4.20349L5.05206 8.9425L7.03775 22.9857C7.1579 23.6647 7.85208 23.9166 8.41208 23.9166L19.2411 23.9166ZM13.8254 18.5955C11.3929 18.5955 9.41537 16.6168 9.41537 14.1854C9.41537 11.7541 11.3929 9.77545 13.8254 9.77545C16.2579 9.77545 18.2354 11.7541 18.2354 14.1854C18.2354 16.6168 16.2579 18.5955 13.8254 18.5955ZM13.8254 16.8455C15.2931 16.8455 16.4854 15.6531 16.4854 14.1854C16.4854 12.7178 15.2931 11.5255 13.8254 11.5255C12.3577 11.5255 11.1654 12.7178 11.1654 14.1854C11.1654 15.6531 12.3577 16.8455 13.8254 16.8455Z" fill="#000000" fill-opacity="1.000000" fill-rule="evenodd"/>
	</g>
	<path id="Home" d="M59.6807 21.4531L57.5801 21.4531L57.5801 15.9863L51.6475 15.9863L51.6475 21.4531L49.5557 21.4531L49.5557 8.84961L51.6475 8.84961L51.6475 14.1494L57.5801 14.1494L57.5801 8.84961L59.6807 8.84961L59.6807 21.4531ZM66.5537 21.6641C65.165 21.6641 64.0547 21.2451 63.2227 20.4072C62.3965 19.5635 61.9834 18.4473 61.9834 17.0586C61.9834 15.5469 62.4141 14.3662 63.2754 13.5166C64.1426 12.667 65.3086 12.2422 66.7734 12.2422C68.1797 12.2422 69.2754 12.6553 70.0605 13.4814C70.8457 14.3076 71.2383 15.4531 71.2383 16.918C71.2383 18.3535 70.8135 19.5049 69.9639 20.3721C69.1201 21.2334 67.9834 21.6641 66.5537 21.6641ZM66.6504 13.8682C65.8535 13.8682 65.2236 14.1465 64.7607 14.7031C64.2979 15.2598 64.0664 16.0273 64.0664 17.0059C64.0664 17.9492 64.3008 18.6934 64.7695 19.2383C65.2383 19.7773 65.8652 20.0469 66.6504 20.0469C67.4531 20.0469 68.0684 19.7803 68.4961 19.2471C68.9297 18.7139 69.1465 17.9551 69.1465 16.9707C69.1465 15.9805 68.9297 15.2158 68.4961 14.6768C68.0684 14.1377 67.4531 13.8682 66.6504 13.8682ZM86.7773 21.4531L84.7383 21.4531L84.7383 16.5488C84.7383 15.6055 84.6035 14.9229 84.334 14.501C84.0703 14.0791 83.6221 13.8682 82.9893 13.8682C82.4561 13.8682 82.002 14.1348 81.627 14.668C81.2578 15.2012 81.0732 15.8398 81.0732 16.584L81.0732 21.4531L79.0254 21.4531L79.0254 16.3818C79.0254 14.7061 78.4336 13.8682 77.25 13.8682C76.6992 13.8682 76.2451 14.1201 75.8877 14.624C75.5361 15.1279 75.3604 15.7812 75.3604 16.584L75.3604 21.4531L73.3213 21.4531L73.3213 12.4531L75.3604 12.4531L75.3604 13.877L75.3955 13.877C76.0459 12.7871 76.9922 12.2422 78.2344 12.2422C78.8555 12.2422 79.3975 12.415 79.8604 12.7607C80.3291 13.1006 80.6484 13.5488 80.8184 14.1055C81.4863 12.8633 82.4824 12.2422 83.8066 12.2422C85.7871 12.2422 86.7773 13.4639 86.7773 15.9072L86.7773 21.4531ZM96.8848 17.5068L90.75 17.5068C90.7734 18.3389 91.0283 18.9805 91.5146 19.4316C92.0068 19.8828 92.6807 20.1084 93.5361 20.1084C94.4971 20.1084 95.3789 19.8213 96.1816 19.2471L96.1816 20.8906C95.3613 21.4062 94.2773 21.6641 92.9297 21.6641C91.6055 21.6641 90.5654 21.2568 89.8096 20.4424C89.0596 19.6221 88.6846 18.4707 88.6846 16.9883C88.6846 15.5879 89.0977 14.4482 89.9238 13.5693C90.7559 12.6846 91.7871 12.2422 93.0176 12.2422C94.248 12.2422 95.2002 12.6377 95.874 13.4287C96.5479 14.2197 96.8848 15.3184 96.8848 16.7246L96.8848 17.5068ZM94.916 16.0654C94.9102 15.333 94.7373 14.7646 94.3975 14.3604C94.0576 13.9502 93.5889 13.7451 92.9912 13.7451C92.4053 13.7451 91.9072 13.959 91.4971 14.3867C91.0928 14.8145 90.8438 15.374 90.75 16.0654L94.916 16.0654Z" fill="#000000" fill-opacity="1.000000" fill-rule="evenodd"/>
</svg>
