<svg width="20.000000" height="20.000000" viewBox="0 0 20 20" fill="none" xmlns="http://www.w3.org/2000/svg" xmlns:xlink="http://www.w3.org/1999/xlink">
	<desc>
			Created with Pixso.
	</desc>
	<defs/>
	<path id="Vector" d="M2.25 0L17.75 0C18.99 0 20 1.01001 20 2.25L20 17.75C20 18.99 18.99 20 17.75 20L2.25 20C1.01001 20 0 18.99 0 17.75L0 2.25C0 1.01001 1.01001 0 2.25 0ZM17.75 1.5L2.25 1.5C1.83704 1.5 1.5 1.83698 1.5 2.25L1.5 15.642L6.38196 10.657C6.52197 10.51 6.724 10.4 6.91699 10.43C7.11707 10.43 7.30701 10.51 7.44702 10.65L9.26001 12.456L13.577 8.07202C13.7159 7.92798 13.9089 7.84802 14.109 7.84802L14.1121 7.84802C14.312 7.84802 14.502 7.92798 14.642 8.06799L18.5 11.926L18.5 2.25C18.5 1.83698 18.163 1.5 17.75 1.5ZM8.41016 6.30896C8.41016 7.16064 7.72021 7.85095 6.86816 7.85095C6.01611 7.85095 5.32617 7.16064 5.32617 6.30896C5.32617 5.4574 6.01611 4.76697 6.86816 4.76697C7.72021 4.76697 8.41016 5.4574 8.41016 6.30896ZM15.33 18.5L17.75 18.5C18.163 18.5 18.5 18.163 18.5 17.75L18.5 14.047L14.115 9.66302L10.323 13.513L15.33 18.5ZM6.92395 12.246L1.50598 17.78C1.52295 18.178 1.84802 18.5 2.25 18.5L13.2061 18.5L6.92395 12.246Z" fill="#1D9BF0" fill-opacity="1.000000" fill-rule="evenodd"/>
</svg>
