<svg width="24" height="24" viewBox="0 0 24 24" fill="none" xmlns="http://www.w3.org/2000/svg">
<g opacity="0.6">
<path d="M11.96 14.945C11.893 14.945 11.824 14.935 11.757 14.918C10.627 14.6 9.66 13.932 8.962 12.986C8.13 11.861 7.786 10.478 7.994 9.09299C8.202 7.70799 8.936 6.48799 10.062 5.65499L13.592 3.04699C15.914 1.33099 19.202 1.82299 20.922 4.14699C21.752 5.27399 22.097 6.65699 21.889 8.04199C21.681 9.42699 20.946 10.647 19.819 11.48L18.339 12.574C18.006 12.82 17.535 12.749 17.289 12.416C17.043 12.082 17.113 11.612 17.447 11.366L18.927 10.271C19.73 9.67899 20.254 8.80799 20.403 7.82099C20.551 6.83299 20.305 5.84599 19.713 5.04299C18.488 3.38699 16.141 3.03299 14.483 4.25899L10.953 6.86699C10.151 7.45999 9.627 8.33099 9.478 9.31699C9.328 10.307 9.575 11.292 10.168 12.095C10.666 12.77 11.355 13.245 12.16 13.472C12.56 13.586 12.793 14 12.68 14.4C12.588 14.73 12.286 14.947 11.958 14.947L11.96 14.945Z" fill="black"/>
<path d="M7.27 22.054C5.66 22.054 4.073 21.319 3.045 19.929C2.213 18.802 1.869 17.419 2.077 16.035C2.285 14.651 3.02 13.43 4.147 12.597L5.625 11.503C5.959 11.258 6.43 11.328 6.675 11.661C6.92 11.994 6.852 12.465 6.518 12.711L5.038 13.806C4.235 14.399 3.712 15.27 3.563 16.256C3.415 17.246 3.66 18.231 4.253 19.034C5.478 20.691 7.823 21.044 9.483 19.819L13.011 17.211C14.669 15.986 15.021 13.641 13.796 11.981C13.298 11.307 12.609 10.831 11.804 10.605C11.404 10.492 11.171 10.078 11.284 9.67798C11.396 9.27798 11.812 9.04798 12.21 9.15598C13.34 9.47398 14.306 10.142 15.004 11.088C16.721 13.412 16.228 16.7 13.904 18.418L10.374 21.026C9.441 21.719 8.351 22.052 7.269 22.052L7.27 22.054Z" fill="black"/>
</g>
</svg>
