<svg width="84.000000" height="28.000000" viewBox="0 0 84 28" fill="none" xmlns="http://www.w3.org/2000/svg" xmlns:xlink="http://www.w3.org/1999/xlink">
	<desc>
			Created with Pixso.
	</desc>
	<defs/>
	<mask id="mask8_121" mask-type="alpha" maskUnits="userSpaceOnUse" x="0.000000" y="0.000000" width="28.000000" height="28.000000">
		<rect id="Rectangle 9" width="28.000000" height="28.000000" fill="#C4C4C4" fill-opacity="1.000000"/>
	</mask>
	<g mask="url(#mask8_121)">
		<path id="Vector" d="M23.0417 25.6667L4.95831 25.6667C3.51166 25.6667 2.33331 24.4884 2.33331 23.0417L2.33331 4.95837C2.33331 3.51172 3.51166 2.33337 4.95831 2.33337L23.0417 2.33337C24.4883 2.33337 25.6667 3.51172 25.6667 4.95837L25.6667 23.0417C25.6667 24.4884 24.4883 25.6667 23.0417 25.6667ZM4.95831 4.08337C4.47531 4.08337 4.08331 4.47656 4.08331 4.95837L4.08331 23.0417C4.08331 23.5236 4.47531 23.9167 4.95831 23.9167L23.0417 23.9167C23.5247 23.9167 23.9167 23.5236 23.9167 23.0417L23.9167 4.95837C23.9167 4.47656 23.5247 4.08337 23.0417 4.08337L4.95831 4.08337Z" fill="#000000" fill-opacity="1.000000" fill-rule="nonzero"/>
	</g>
	<g mask="url(#mask8_121)">
		<path id="Vector" d="M19.5417 9.91663L7.875 9.91663C7.392 9.91663 7 9.52344 7 9.04163C7 8.55981 7.392 8.16663 7.875 8.16663L19.5417 8.16663C20.0247 8.16663 20.4167 8.55743 20.4167 9.04163C20.4167 9.52582 20.0247 9.91663 19.5417 9.91663ZM19.5417 14.7116L7.875 14.7116C7.392 14.7116 7 14.3196 7 13.8366C7 13.3536 7.392 12.9616 7.875 12.9616L19.5417 12.9616C20.0247 12.9616 20.4167 13.3536 20.4167 13.8366C20.4167 14.3196 20.0247 14.7116 19.5417 14.7116ZM13.7083 19.5067L7.875 19.5067C7.392 19.5067 7 19.1158 7 18.6317C7 18.1475 7.392 17.7567 7.875 17.7567L13.7083 17.7567C14.1913 17.7567 14.5833 18.1498 14.5833 18.6317C14.5833 19.1135 14.1913 19.5067 13.7083 19.5067Z" fill="#000000" fill-opacity="1.000000" fill-rule="nonzero"/>
	</g>
	<path id="Home" d="M56.5342 21.4531L49.5557 21.4531L49.5557 8.84961L51.6475 8.84961L51.6475 19.6865L56.5342 19.6865L56.5342 21.4531ZM59.1621 10.5635C58.8281 10.5635 58.541 10.4551 58.3008 10.2383C58.0664 10.0215 57.9492 9.74609 57.9492 9.41211C57.9492 9.07812 58.0664 8.7998 58.3008 8.57715C58.541 8.35449 58.8281 8.24316 59.1621 8.24316C59.5078 8.24316 59.8008 8.35449 60.041 8.57715C60.2812 8.7998 60.4014 9.07812 60.4014 9.41211C60.4014 9.72852 60.2812 10.001 60.041 10.2295C59.8008 10.4521 59.5078 10.5635 59.1621 10.5635ZM60.1729 21.4531L58.1338 21.4531L58.1338 12.4531L60.1729 12.4531L60.1729 21.4531ZM62.2822 21.1719L62.2822 19.2822C63.0439 19.8623 63.8848 20.1523 64.8047 20.1523C66.0352 20.1523 66.6504 19.7891 66.6504 19.0625C66.6504 18.8574 66.5977 18.6846 66.4922 18.5439C66.3867 18.3975 66.2432 18.2686 66.0615 18.1572C65.8857 18.0459 65.6748 17.9463 65.4287 17.8584C65.1885 17.7705 64.9189 17.6709 64.6201 17.5596C64.251 17.4131 63.917 17.2578 63.6182 17.0938C63.3252 16.9297 63.0791 16.7451 62.8799 16.54C62.6865 16.3291 62.54 16.0918 62.4404 15.8281C62.3408 15.5645 62.291 15.2568 62.291 14.9053C62.291 14.4717 62.3936 14.0908 62.5986 13.7627C62.8037 13.4287 63.0791 13.1504 63.4248 12.9277C63.7705 12.6992 64.1631 12.5293 64.6025 12.418C65.042 12.3008 65.4961 12.2422 65.9648 12.2422C66.7969 12.2422 67.541 12.3682 68.1973 12.6201L68.1973 14.4043C67.5645 13.9707 66.8379 13.7539 66.0176 13.7539C65.7598 13.7539 65.5254 13.7803 65.3145 13.833C65.1094 13.8857 64.9336 13.959 64.7871 14.0527C64.6406 14.1465 64.5264 14.2607 64.4443 14.3955C64.3623 14.5244 64.3213 14.668 64.3213 14.8262C64.3213 15.0195 64.3623 15.1836 64.4443 15.3184C64.5264 15.4531 64.6465 15.5732 64.8047 15.6787C64.9688 15.7783 65.1621 15.8721 65.3848 15.96C65.6133 16.042 65.874 16.1328 66.167 16.2324C66.5537 16.3906 66.8994 16.5518 67.2041 16.7158C67.5146 16.8799 67.7783 17.0674 67.9951 17.2783C68.2119 17.4834 68.3789 17.7236 68.4961 17.999C68.6133 18.2686 68.6719 18.5908 68.6719 18.9658C68.6719 19.4229 68.5664 19.8213 68.3555 20.1611C68.1445 20.501 67.8633 20.7822 67.5117 21.0049C67.1602 21.2275 66.7529 21.3916 66.29 21.4971C65.833 21.6084 65.3496 21.6641 64.8398 21.6641C63.8555 21.6641 63.0029 21.5 62.2822 21.1719ZM75.3604 21.3564C74.9619 21.5557 74.4375 21.6553 73.7871 21.6553C72.041 21.6553 71.168 20.8174 71.168 19.1416L71.168 14.0527L69.665 14.0527L69.665 12.4531L71.168 12.4531L71.168 10.3701L73.207 9.79004L73.207 12.4531L75.3604 12.4531L75.3604 14.0527L73.207 14.0527L73.207 18.5527C73.207 19.0859 73.3037 19.4668 73.4971 19.6953C73.6904 19.9238 74.0127 20.0381 74.4639 20.0381C74.8096 20.0381 75.1084 19.9385 75.3604 19.7393L75.3604 21.3564ZM76.5557 21.1719L76.5557 19.2822C77.3174 19.8623 78.1582 20.1523 79.0781 20.1523C80.3086 20.1523 80.9238 19.7891 80.9238 19.0625C80.9238 18.8574 80.8711 18.6846 80.7656 18.5439C80.6602 18.3975 80.5166 18.2686 80.335 18.1572C80.1592 18.0459 79.9482 17.9463 79.7021 17.8584C79.4619 17.7705 79.1924 17.6709 78.8936 17.5596C78.5244 17.4131 78.1904 17.2578 77.8916 17.0938C77.5986 16.9297 77.3525 16.7451 77.1533 16.54C76.96 16.3291 76.8135 16.0918 76.7139 15.8281C76.6143 15.5645 76.5645 15.2568 76.5645 14.9053C76.5645 14.4717 76.667 14.0908 76.8721 13.7627C77.0771 13.4287 77.3525 13.1504 77.6982 12.9277C78.0439 12.6992 78.4365 12.5293 78.876 12.418C79.3154 12.3008 79.7695 12.2422 80.2383 12.2422C81.0703 12.2422 81.8145 12.3682 82.4707 12.6201L82.4707 14.4043C81.8379 13.9707 81.1113 13.7539 80.291 13.7539C80.0332 13.7539 79.7988 13.7803 79.5879 13.833C79.3828 13.8857 79.207 13.959 79.0605 14.0527C78.9141 14.1465 78.7998 14.2607 78.7178 14.3955C78.6357 14.5244 78.5947 14.668 78.5947 14.8262C78.5947 15.0195 78.6357 15.1836 78.7178 15.3184C78.7998 15.4531 78.9199 15.5732 79.0781 15.6787C79.2422 15.7783 79.4355 15.8721 79.6582 15.96C79.8867 16.042 80.1475 16.1328 80.4404 16.2324C80.8271 16.3906 81.1729 16.5518 81.4775 16.7158C81.7881 16.8799 82.0518 17.0674 82.2686 17.2783C82.4854 17.4834 82.6523 17.7236 82.7695 17.999C82.8867 18.2686 82.9453 18.5908 82.9453 18.9658C82.9453 19.4229 82.8398 19.8213 82.6289 20.1611C82.418 20.501 82.1367 20.7822 81.7852 21.0049C81.4336 21.2275 81.0264 21.3916 80.5635 21.4971C80.1064 21.6084 79.623 21.6641 79.1133 21.6641C78.1289 21.6641 77.2764 21.5 76.5557 21.1719Z" fill="#000000" fill-opacity="1.000000" fill-rule="evenodd"/>
</svg>
