<svg width="128.000000" height="28.000000" viewBox="0 0 128 28" fill="none" xmlns="http://www.w3.org/2000/svg" xmlns:xlink="http://www.w3.org/1999/xlink">
	<desc>
			Created with Pixso.
	</desc>
	<defs/>
	<mask id="mask8_113" mask-type="alpha" maskUnits="userSpaceOnUse" x="0.000000" y="0.000000" width="28.000000" height="28.000000">
		<rect id="Rectangle 9" width="28.000000" height="28.000000" fill="#C4C4C4" fill-opacity="1.000000"/>
	</mask>
	<g mask="url(#mask8_113)">
		<path id="Vector" d="M22.4583 3.5L5.54166 3.5C3.77182 3.5 2.33331 4.93964 2.33331 6.71069L2.33331 21.2881C2.33331 23.0591 3.77182 24.5 5.54166 24.5L22.4583 24.5C24.2281 24.5 25.6667 23.0591 25.6667 21.2881L25.6667 6.71069C25.6667 4.93964 24.2281 3.5 22.4583 3.5ZM5.54166 5.25L22.4583 5.25C23.2633 5.25 23.9167 5.90332 23.9167 6.70831L23.9167 7.54132L14.525 13.8029C14.2065 14.0128 13.7946 14.0151 13.475 13.8005L4.08331 7.54132L4.08331 6.70831C4.08331 5.90332 4.73663 5.25 5.54166 5.25ZM22.4583 22.7477L5.54166 22.7477C4.73663 22.7477 4.08331 22.0944 4.08331 21.2893L4.08331 9.59235L12.53 15.2274C12.9768 15.526 13.489 15.6753 14 15.6753C14.5133 15.6753 15.0231 15.526 15.47 15.2285L23.9167 9.59351L23.9167 21.2858C23.9167 22.0908 23.2633 22.7441 22.4583 22.7441L22.4583 22.7477Z" fill="#000000" fill-opacity="1.000000" fill-rule="nonzero"/>
	</g>
	<path id="Home" d="M63.0908 21.4531L61.0166 21.4531L61.0166 13.2969C61.0166 12.6289 61.0576 11.8115 61.1396 10.8447L61.1045 10.8447C60.9756 11.3955 60.8613 11.791 60.7617 12.0312L57 21.4531L55.5586 21.4531L51.7881 12.1016C51.6826 11.8262 51.5713 11.4072 51.4541 10.8447L51.4189 10.8447C51.4658 11.3486 51.4893 12.1719 51.4893 13.3145L51.4893 21.4531L49.5557 21.4531L49.5557 8.84961L52.5 8.84961L55.8135 17.2432C56.0654 17.8877 56.2295 18.3682 56.3057 18.6846L56.3496 18.6846C56.5664 18.0225 56.7422 17.5303 56.877 17.208L60.252 8.84961L63.0908 8.84961L63.0908 21.4531ZM73.5938 17.5068L67.459 17.5068C67.4824 18.3389 67.7373 18.9805 68.2236 19.4316C68.7158 19.8828 69.3896 20.1084 70.2451 20.1084C71.2061 20.1084 72.0879 19.8213 72.8906 19.2471L72.8906 20.8906C72.0703 21.4062 70.9863 21.6641 69.6387 21.6641C68.3145 21.6641 67.2744 21.2568 66.5186 20.4424C65.7686 19.6221 65.3936 18.4707 65.3936 16.9883C65.3936 15.5879 65.8066 14.4482 66.6328 13.5693C67.4648 12.6846 68.4961 12.2422 69.7266 12.2422C70.957 12.2422 71.9092 12.6377 72.583 13.4287C73.2568 14.2197 73.5938 15.3184 73.5938 16.7246L73.5938 17.5068ZM71.625 16.0654C71.6191 15.333 71.4463 14.7646 71.1064 14.3604C70.7666 13.9502 70.2979 13.7451 69.7002 13.7451C69.1143 13.7451 68.6162 13.959 68.2061 14.3867C67.8018 14.8145 67.5527 15.374 67.459 16.0654L71.625 16.0654ZM74.9736 21.1719L74.9736 19.2822C75.7354 19.8623 76.5762 20.1523 77.4961 20.1523C78.7266 20.1523 79.3418 19.7891 79.3418 19.0625C79.3418 18.8574 79.2891 18.6846 79.1836 18.5439C79.0781 18.3975 78.9346 18.2686 78.7529 18.1572C78.5771 18.0459 78.3662 17.9463 78.1201 17.8584C77.8799 17.7705 77.6104 17.6709 77.3115 17.5596C76.9424 17.4131 76.6084 17.2578 76.3096 17.0938C76.0166 16.9297 75.7705 16.7451 75.5713 16.54C75.3779 16.3291 75.2314 16.0918 75.1318 15.8281C75.0322 15.5645 74.9824 15.2568 74.9824 14.9053C74.9824 14.4717 75.085 14.0908 75.29 13.7627C75.4951 13.4287 75.7705 13.1504 76.1162 12.9277C76.4619 12.6992 76.8545 12.5293 77.2939 12.418C77.7334 12.3008 78.1875 12.2422 78.6562 12.2422C79.4883 12.2422 80.2324 12.3682 80.8887 12.6201L80.8887 14.4043C80.2559 13.9707 79.5293 13.7539 78.709 13.7539C78.4512 13.7539 78.2168 13.7803 78.0059 13.833C77.8008 13.8857 77.625 13.959 77.4785 14.0527C77.332 14.1465 77.2178 14.2607 77.1357 14.3955C77.0537 14.5244 77.0127 14.668 77.0127 14.8262C77.0127 15.0195 77.0537 15.1836 77.1357 15.3184C77.2178 15.4531 77.3379 15.5732 77.4961 15.6787C77.6602 15.7783 77.8535 15.8721 78.0762 15.96C78.3047 16.042 78.5654 16.1328 78.8584 16.2324C79.2451 16.3906 79.5908 16.5518 79.8955 16.7158C80.2061 16.8799 80.4697 17.0674 80.6865 17.2783C80.9033 17.4834 81.0703 17.7236 81.1875 17.999C81.3047 18.2686 81.3633 18.5908 81.3633 18.9658C81.3633 19.4229 81.2578 19.8213 81.0469 20.1611C80.8359 20.501 80.5547 20.7822 80.2031 21.0049C79.8516 21.2275 79.4443 21.3916 78.9814 21.4971C78.5244 21.6084 78.041 21.6641 77.5312 21.6641C76.5469 21.6641 75.6943 21.5 74.9736 21.1719ZM82.7432 21.1719L82.7432 19.2822C83.5049 19.8623 84.3457 20.1523 85.2656 20.1523C86.4961 20.1523 87.1113 19.7891 87.1113 19.0625C87.1113 18.8574 87.0586 18.6846 86.9531 18.5439C86.8477 18.3975 86.7041 18.2686 86.5225 18.1572C86.3467 18.0459 86.1357 17.9463 85.8896 17.8584C85.6494 17.7705 85.3799 17.6709 85.0811 17.5596C84.7119 17.4131 84.3779 17.2578 84.0791 17.0938C83.7861 16.9297 83.54 16.7451 83.3408 16.54C83.1475 16.3291 83.001 16.0918 82.9014 15.8281C82.8018 15.5645 82.752 15.2568 82.752 14.9053C82.752 14.4717 82.8545 14.0908 83.0596 13.7627C83.2646 13.4287 83.54 13.1504 83.8857 12.9277C84.2314 12.6992 84.624 12.5293 85.0635 12.418C85.5029 12.3008 85.957 12.2422 86.4258 12.2422C87.2578 12.2422 88.002 12.3682 88.6582 12.6201L88.6582 14.4043C88.0254 13.9707 87.2988 13.7539 86.4785 13.7539C86.2207 13.7539 85.9863 13.7803 85.7754 13.833C85.5703 13.8857 85.3945 13.959 85.248 14.0527C85.1016 14.1465 84.9873 14.2607 84.9053 14.3955C84.8232 14.5244 84.7822 14.668 84.7822 14.8262C84.7822 15.0195 84.8232 15.1836 84.9053 15.3184C84.9873 15.4531 85.1074 15.5732 85.2656 15.6787C85.4297 15.7783 85.623 15.8721 85.8457 15.96C86.0742 16.042 86.335 16.1328 86.6279 16.2324C87.0146 16.3906 87.3604 16.5518 87.665 16.7158C87.9756 16.8799 88.2393 17.0674 88.4561 17.2783C88.6729 17.4834 88.8398 17.7236 88.957 17.999C89.0742 18.2686 89.1328 18.5908 89.1328 18.9658C89.1328 19.4229 89.0273 19.8213 88.8164 20.1611C88.6055 20.501 88.3242 20.7822 87.9727 21.0049C87.6211 21.2275 87.2139 21.3916 86.751 21.4971C86.2939 21.6084 85.8105 21.6641 85.3008 21.6641C84.3164 21.6641 83.4639 21.5 82.7432 21.1719ZM97.9834 21.4531L96.0059 21.4531L96.0059 20.0469L95.9707 20.0469C95.3496 21.125 94.4385 21.6641 93.2373 21.6641C92.3525 21.6641 91.6582 21.4238 91.1543 20.9434C90.6562 20.4629 90.4072 19.8271 90.4072 19.0361C90.4072 17.3369 91.3857 16.3467 93.3428 16.0654L96.0146 15.6875C96.0146 14.4043 95.4053 13.7627 94.1865 13.7627C93.1143 13.7627 92.1475 14.1318 91.2861 14.8701L91.2861 13.0859C92.2354 12.5234 93.3311 12.2422 94.5732 12.2422C96.8467 12.2422 97.9834 13.3613 97.9834 15.5996L97.9834 21.4531ZM96.0146 17.0322L94.125 17.2959C93.5391 17.3721 93.0967 17.5156 92.7979 17.7266C92.5049 17.9316 92.3584 18.2949 92.3584 18.8164C92.3584 19.1973 92.4932 19.5107 92.7627 19.7568C93.0381 19.9971 93.4043 20.1172 93.8613 20.1172C94.4824 20.1172 94.9951 19.9004 95.3994 19.4668C95.8096 19.0273 96.0146 18.4766 96.0146 17.8145L96.0146 17.0322ZM108.671 20.7324C108.671 24.0371 107.01 25.6895 103.688 25.6895C102.516 25.6895 101.493 25.4932 100.62 25.1006L100.62 23.2373C101.604 23.7998 102.539 24.0811 103.424 24.0811C105.562 24.0811 106.632 23.0293 106.632 20.9258L106.632 19.9414L106.597 19.9414C105.923 21.0898 104.909 21.6641 103.556 21.6641C102.46 21.6641 101.575 21.2656 100.901 20.4688C100.233 19.666 99.8994 18.5908 99.8994 17.2432C99.8994 15.7139 100.26 14.498 100.98 13.5957C101.701 12.6934 102.691 12.2422 103.951 12.2422C105.141 12.2422 106.022 12.7285 106.597 13.7012L106.632 13.7012L106.632 12.4531L108.671 12.4531L108.671 20.7324ZM106.649 17.3311L106.649 16.1621C106.649 15.5293 106.438 14.9902 106.017 14.5449C105.601 14.0938 105.079 13.8682 104.452 13.8682C103.679 13.8682 103.072 14.1553 102.633 14.7295C102.199 15.2979 101.982 16.0947 101.982 17.1201C101.982 18.0049 102.19 18.7139 102.606 19.2471C103.028 19.7744 103.585 20.0381 104.276 20.0381C104.979 20.0381 105.551 19.7861 105.99 19.2822C106.43 18.7725 106.649 18.1221 106.649 17.3311ZM118.945 17.5068L112.811 17.5068C112.834 18.3389 113.089 18.9805 113.575 19.4316C114.067 19.8828 114.741 20.1084 115.597 20.1084C116.558 20.1084 117.439 19.8213 118.242 19.2471L118.242 20.8906C117.422 21.4062 116.338 21.6641 114.99 21.6641C113.666 21.6641 112.626 21.2568 111.87 20.4424C111.12 19.6221 110.745 18.4707 110.745 16.9883C110.745 15.5879 111.158 14.4482 111.984 13.5693C112.816 12.6846 113.848 12.2422 115.078 12.2422C116.309 12.2422 117.261 12.6377 117.935 13.4287C118.608 14.2197 118.945 15.3184 118.945 16.7246L118.945 17.5068ZM116.977 16.0654C116.971 15.333 116.798 14.7646 116.458 14.3604C116.118 13.9502 115.649 13.7451 115.052 13.7451C114.466 13.7451 113.968 13.959 113.558 14.3867C113.153 14.8145 112.904 15.374 112.811 16.0654L116.977 16.0654ZM120.325 21.1719L120.325 19.2822C121.087 19.8623 121.928 20.1523 122.848 20.1523C124.078 20.1523 124.693 19.7891 124.693 19.0625C124.693 18.8574 124.641 18.6846 124.535 18.5439C124.43 18.3975 124.286 18.2686 124.104 18.1572C123.929 18.0459 123.718 17.9463 123.472 17.8584C123.231 17.7705 122.962 17.6709 122.663 17.5596C122.294 17.4131 121.96 17.2578 121.661 17.0938C121.368 16.9297 121.122 16.7451 120.923 16.54C120.729 16.3291 120.583 16.0918 120.483 15.8281C120.384 15.5645 120.334 15.2568 120.334 14.9053C120.334 14.4717 120.437 14.0908 120.642 13.7627C120.847 13.4287 121.122 13.1504 121.468 12.9277C121.813 12.6992 122.206 12.5293 122.646 12.418C123.085 12.3008 123.539 12.2422 124.008 12.2422C124.84 12.2422 125.584 12.3682 126.24 12.6201L126.24 14.4043C125.607 13.9707 124.881 13.7539 124.061 13.7539C123.803 13.7539 123.568 13.7803 123.357 13.833C123.152 13.8857 122.977 13.959 122.83 14.0527C122.684 14.1465 122.569 14.2607 122.487 14.3955C122.405 14.5244 122.364 14.668 122.364 14.8262C122.364 15.0195 122.405 15.1836 122.487 15.3184C122.569 15.4531 122.689 15.5732 122.848 15.6787C123.012 15.7783 123.205 15.8721 123.428 15.96C123.656 16.042 123.917 16.1328 124.21 16.2324C124.597 16.3906 124.942 16.5518 125.247 16.7158C125.558 16.8799 125.821 17.0674 126.038 17.2783C126.255 17.4834 126.422 17.7236 126.539 17.999C126.656 18.2686 126.715 18.5908 126.715 18.9658C126.715 19.4229 126.609 19.8213 126.398 20.1611C126.188 20.501 125.906 20.7822 125.555 21.0049C125.203 21.2275 124.796 21.3916 124.333 21.4971C123.876 21.6084 123.393 21.6641 122.883 21.6641C121.898 21.6641 121.046 21.5 120.325 21.1719Z" fill="#000000" fill-opacity="1.000000" fill-rule="evenodd"/>
</svg>
