<svg width="92.000000" height="28.000000" viewBox="0 0 92 28" fill="none" xmlns="http://www.w3.org/2000/svg" xmlns:xlink="http://www.w3.org/1999/xlink">
	<desc>
			Created with Pixso.
	</desc>
	<defs/>
	<mask id="mask8_163" mask-type="alpha" maskUnits="userSpaceOnUse" x="0.000000" y="0.000000" width="28.000000" height="28.000000">
		<rect id="Rectangle 9" width="28.000000" height="28.000000" fill="#C4C4C4" fill-opacity="1.000000"/>
	</mask>
	<g mask="url(#mask8_163)">
		<path id="Vector" d="M1.16675 13.7083C1.16675 20.6243 6.79248 26.25 13.7085 26.25C20.6245 26.25 26.25 20.6243 26.25 13.7083C26.25 6.7923 20.6245 1.16663 13.7085 1.16663C6.79248 1.16663 1.16675 6.7923 1.16675 13.7083ZM2.91675 13.7083C2.91675 7.7583 7.7583 2.91663 13.7085 2.91663C19.6584 2.91663 24.5 7.7583 24.5 13.7083C24.5 19.6583 19.6584 24.5 13.7085 24.5C7.7583 24.5 2.91675 19.6583 2.91675 13.7083ZM6.41675 13.7083C6.41675 12.5848 7.33252 11.6666 8.4585 11.6666C9.58203 11.6666 10.5 12.5836 10.5 13.7083C10.5 14.8329 9.58301 15.75 8.4585 15.75C7.33252 15.75 6.41675 14.8318 6.41675 13.7083ZM11.6667 13.7083C11.6667 12.5848 12.5813 11.6666 13.7085 11.6666C14.8354 11.6666 15.75 12.5836 15.75 13.7083C15.75 14.8329 14.8342 15.75 13.7085 15.75C12.5825 15.75 11.6667 14.8318 11.6667 13.7083ZM16.9167 13.7083C16.9167 12.5848 17.8325 11.6666 18.9585 11.6666C20.083 11.6666 21 12.5836 21 13.7083C21 14.8329 20.083 15.75 18.9585 15.75C17.8313 15.75 16.9167 14.8318 16.9167 13.7083ZM7.5835 13.7083C7.5835 14.1913 7.97534 14.5833 8.4585 14.5833C8.94141 14.5833 9.3335 14.1901 9.3335 13.7083C9.3335 13.2253 8.94019 12.8333 8.4585 12.8333C7.97656 12.8333 7.5835 13.2265 7.5835 13.7083ZM12.8335 13.7083C12.8335 14.1913 13.2253 14.5833 13.7085 14.5833C14.1914 14.5833 14.5835 14.1901 14.5835 13.7083C14.5835 13.2253 14.1902 12.8333 13.7085 12.8333C13.2266 12.8333 12.8335 13.2265 12.8335 13.7083ZM18.0835 13.7083C18.0835 14.1913 18.4753 14.5833 18.9585 14.5833C19.4414 14.5833 19.8335 14.1901 19.8335 13.7083C19.8335 13.2253 19.4402 12.8333 18.9585 12.8333C18.4766 12.8333 18.0835 13.2265 18.0835 13.7083Z" fill="#000000" fill-opacity="1.000000" fill-rule="evenodd"/>
	</g>
	<path id="Home" d="M63.0908 21.4531L61.0166 21.4531L61.0166 13.2969C61.0166 12.6289 61.0576 11.8115 61.1396 10.8447L61.1045 10.8447C60.9756 11.3955 60.8613 11.791 60.7617 12.0312L57 21.4531L55.5586 21.4531L51.7881 12.1016C51.6826 11.8262 51.5713 11.4072 51.4541 10.8447L51.4189 10.8447C51.4658 11.3486 51.4893 12.1719 51.4893 13.3145L51.4893 21.4531L49.5557 21.4531L49.5557 8.84961L52.5 8.84961L55.8135 17.2432C56.0654 17.8877 56.2295 18.3682 56.3057 18.6846L56.3496 18.6846C56.5664 18.0225 56.7422 17.5303 56.877 17.208L60.252 8.84961L63.0908 8.84961L63.0908 21.4531ZM69.9639 21.6641C68.5752 21.6641 67.4648 21.2451 66.6328 20.4072C65.8066 19.5635 65.3936 18.4473 65.3936 17.0586C65.3936 15.5469 65.8242 14.3662 66.6855 13.5166C67.5527 12.667 68.7188 12.2422 70.1836 12.2422C71.5898 12.2422 72.6855 12.6553 73.4707 13.4814C74.2559 14.3076 74.6484 15.4531 74.6484 16.918C74.6484 18.3535 74.2236 19.5049 73.374 20.3721C72.5303 21.2334 71.3936 21.6641 69.9639 21.6641ZM70.0605 13.8682C69.2637 13.8682 68.6338 14.1465 68.1709 14.7031C67.708 15.2598 67.4766 16.0273 67.4766 17.0059C67.4766 17.9492 67.7109 18.6934 68.1797 19.2383C68.6484 19.7773 69.2754 20.0469 70.0605 20.0469C70.8633 20.0469 71.4785 19.7803 71.9062 19.2471C72.3398 18.7139 72.5566 17.9551 72.5566 16.9707C72.5566 15.9805 72.3398 15.2158 71.9062 14.6768C71.4785 14.1377 70.8633 13.8682 70.0605 13.8682ZM81.9521 14.3955C81.7061 14.2021 81.3516 14.1055 80.8887 14.1055C80.2852 14.1055 79.7812 14.3779 79.377 14.9229C78.9727 15.4678 78.7705 16.209 78.7705 17.1465L78.7705 21.4531L76.7314 21.4531L76.7314 12.4531L78.7705 12.4531L78.7705 14.3076L78.8057 14.3076C79.0049 13.6748 79.3096 13.1826 79.7197 12.8311C80.1357 12.4736 80.5986 12.2949 81.1084 12.2949C81.4775 12.2949 81.7588 12.3506 81.9521 12.4619L81.9521 14.3955ZM91.0137 17.5068L84.8789 17.5068C84.9023 18.3389 85.1572 18.9805 85.6436 19.4316C86.1357 19.8828 86.8096 20.1084 87.665 20.1084C88.626 20.1084 89.5078 19.8213 90.3105 19.2471L90.3105 20.8906C89.4902 21.4062 88.4062 21.6641 87.0586 21.6641C85.7344 21.6641 84.6943 21.2568 83.9385 20.4424C83.1885 19.6221 82.8135 18.4707 82.8135 16.9883C82.8135 15.5879 83.2266 14.4482 84.0527 13.5693C84.8848 12.6846 85.916 12.2422 87.1465 12.2422C88.377 12.2422 89.3291 12.6377 90.0029 13.4287C90.6768 14.2197 91.0137 15.3184 91.0137 16.7246L91.0137 17.5068ZM89.0449 16.0654C89.0391 15.333 88.8662 14.7646 88.5264 14.3604C88.1865 13.9502 87.7178 13.7451 87.1201 13.7451C86.5342 13.7451 86.0361 13.959 85.626 14.3867C85.2217 14.8145 84.9727 15.374 84.8789 16.0654L89.0449 16.0654Z" fill="#000000" fill-opacity="1.000000" fill-rule="evenodd"/>
</svg>
