<svg width="13.749430" height="16.995819" viewBox="0 0 13.7494 16.9958" fill="none" xmlns="http://www.w3.org/2000/svg" xmlns:xlink="http://www.w3.org/1999/xlink">
	<desc>
			Created with Pixso.
	</desc>
	<defs/>
	<path id="Vector" d="M13.7352 10.4208C13.4227 8.96667 11.7835 7.49918 10.3935 6.98334L9.94019 2.85999L11.186 0.991669C11.3169 0.795013 11.3294 0.543335 11.2169 0.335846C11.1052 0.127502 10.8902 0 10.6544 0L3.03769 0C2.80103 0 2.58603 0.128326 2.47436 0.335846C2.36269 0.544159 2.37436 0.796661 2.50603 0.992493L3.75436 2.86499L3.35103 6.98416C1.96103 7.50082 0.323528 8.9675 0.0143604 10.4142C-0.0189724 10.5475 0.00102806 10.7508 0.124361 10.9092C0.210194 11.0192 0.377693 11.1508 0.691027 11.1508L4.07269 11.1508L6.49269 16.7442C6.55769 16.8975 6.70936 16.9958 6.87436 16.9958C7.03936 16.9958 7.19103 16.8975 7.25769 16.7442L9.67686 11.15L13.0577 11.15C13.371 11.15 13.5377 11.02 13.6244 10.9117C13.746 10.755 13.7677 10.55 13.7369 10.42L13.7352 10.4208Z" fill="#536471" fill-opacity="1.000000" fill-rule="nonzero"/>
</svg>
