<svg width="101.000000" height="28.000000" viewBox="0 0 101 28" fill="none" xmlns="http://www.w3.org/2000/svg" xmlns:xlink="http://www.w3.org/1999/xlink">
	<desc>
			Created with Pixso.
	</desc>
	<defs/>
	<mask id="mask8_159" mask-type="alpha" maskUnits="userSpaceOnUse" x="0.000000" y="0.000000" width="28.000000" height="28.000000">
		<rect id="Rectangle 20" width="28.000000" height="28.000000" fill="#C4C4C4" fill-opacity="1.000000"/>
	</mask>
	<g mask="url(#mask8_159)">
		<path id="Vector" d="M13.2429 14.1867C14.8237 14.1867 16.5935 14.0117 17.7229 12.7214C18.6724 11.6364 18.9805 9.95868 18.6631 7.59735C18.2197 4.30151 16.1934 2.33337 13.2429 2.33337C10.2922 2.33337 8.26587 4.30151 7.82251 7.59973C7.50513 9.95868 7.81323 11.6364 8.7627 12.7214C9.89209 14.0129 11.6619 14.1867 13.2429 14.1867ZM9.55615 7.83069C9.74512 6.43073 10.4744 4.08337 13.2429 4.08337C16.0112 4.08337 16.7405 6.43188 16.9294 7.83069C17.1709 9.63904 16.9961 10.8956 16.4045 11.5699C15.8735 12.1765 14.9275 12.4367 13.2429 12.4367C11.5581 12.4367 10.6121 12.1765 10.0811 11.5699C9.48975 10.8956 9.3147 9.63788 9.55615 7.83069ZM22.9028 22.8434C21.8796 18.7297 17.9072 15.855 13.2429 15.855C8.57837 15.855 4.60596 18.7297 3.58276 22.8434C3.38208 23.6507 3.55005 24.4767 4.0437 25.1067C4.51953 25.7134 5.25708 26.0634 6.06543 26.0634L20.4202 26.0634C21.2288 26.0634 21.9661 25.7134 22.4419 25.1067C22.9365 24.4767 23.1035 23.6519 22.9016 22.8434L22.9028 22.8434ZM21.0642 24.0287C20.9172 24.2154 20.6956 24.3157 20.4202 24.3157L6.06543 24.3157C5.79126 24.3157 5.56836 24.2166 5.42139 24.0287C5.26172 23.8257 5.21143 23.548 5.28149 23.2657C6.10986 19.9349 9.38452 17.6074 13.2429 17.6074C17.1011 17.6074 20.3757 19.9337 21.2041 23.2657C21.2742 23.548 21.2239 23.8257 21.0642 24.0287Z" fill="#000000" fill-opacity="1.000000" fill-rule="nonzero"/>
	</g>
	<path id="Home" d="M51.6387 16.8828L51.6387 21.4531L49.5557 21.4531L49.5557 8.84961L53.3789 8.84961C54.8262 8.84961 55.9482 9.18652 56.7451 9.86035C57.542 10.5342 57.9404 11.4834 57.9404 12.708C57.9404 13.9326 57.5244 14.9346 56.6924 15.7139C55.8604 16.4932 54.7354 16.8828 53.3174 16.8828L51.6387 16.8828ZM51.6387 10.5723L51.6387 15.1777L52.9922 15.1777C53.8887 15.1777 54.5713 14.9697 55.04 14.5537C55.5088 14.1377 55.7432 13.5518 55.7432 12.7959C55.7432 11.3135 54.8818 10.5723 53.1592 10.5723L51.6387 10.5723ZM65.0771 14.3955C64.8311 14.2021 64.4766 14.1055 64.0137 14.1055C63.4102 14.1055 62.9062 14.3779 62.502 14.9229C62.0977 15.4678 61.8955 16.209 61.8955 17.1465L61.8955 21.4531L59.8564 21.4531L59.8564 12.4531L61.8955 12.4531L61.8955 14.3076L61.9307 14.3076C62.1299 13.6748 62.4346 13.1826 62.8447 12.8311C63.2607 12.4736 63.7236 12.2949 64.2334 12.2949C64.6025 12.2949 64.8838 12.3506 65.0771 12.4619L65.0771 14.3955ZM70.3506 21.6641C68.9619 21.6641 67.8516 21.2451 67.0195 20.4072C66.1934 19.5635 65.7803 18.4473 65.7803 17.0586C65.7803 15.5469 66.2109 14.3662 67.0723 13.5166C67.9395 12.667 69.1055 12.2422 70.5703 12.2422C71.9766 12.2422 73.0723 12.6553 73.8574 13.4814C74.6426 14.3076 75.0352 15.4531 75.0352 16.918C75.0352 18.3535 74.6104 19.5049 73.7607 20.3721C72.917 21.2334 71.7803 21.6641 70.3506 21.6641ZM70.4473 13.8682C69.6504 13.8682 69.0205 14.1465 68.5576 14.7031C68.0947 15.2598 67.8633 16.0273 67.8633 17.0059C67.8633 17.9492 68.0977 18.6934 68.5664 19.2383C69.0352 19.7773 69.6621 20.0469 70.4473 20.0469C71.25 20.0469 71.8652 19.7803 72.293 19.2471C72.7266 18.7139 72.9434 17.9551 72.9434 16.9707C72.9434 15.9805 72.7266 15.2158 72.293 14.6768C71.8652 14.1377 71.25 13.8682 70.4473 13.8682ZM81.9082 9.79004C81.6328 9.63184 81.3193 9.55273 80.9678 9.55273C79.9775 9.55273 79.4824 10.1123 79.4824 11.2314L79.4824 12.4531L81.5742 12.4531L81.5742 14.0527L79.4912 14.0527L79.4912 21.4531L77.4521 21.4531L77.4521 14.0527L75.9141 14.0527L75.9141 12.4531L77.4521 12.4531L77.4521 10.9941C77.4521 10.0449 77.7627 9.29785 78.3838 8.75293C79.0049 8.20215 79.7812 7.92676 80.7129 7.92676C81.2168 7.92676 81.6152 7.98242 81.9082 8.09375L81.9082 9.79004ZM84.0527 10.5635C83.7188 10.5635 83.4316 10.4551 83.1914 10.2383C82.957 10.0215 82.8398 9.74609 82.8398 9.41211C82.8398 9.07812 82.957 8.7998 83.1914 8.57715C83.4316 8.35449 83.7188 8.24316 84.0527 8.24316C84.3984 8.24316 84.6914 8.35449 84.9316 8.57715C85.1719 8.7998 85.292 9.07812 85.292 9.41211C85.292 9.72852 85.1719 10.001 84.9316 10.2295C84.6914 10.4521 84.3984 10.5635 84.0527 10.5635ZM85.0635 21.4531L83.0244 21.4531L83.0244 12.4531L85.0635 12.4531L85.0635 21.4531ZM89.7832 21.4531L87.7354 21.4531L87.7354 8.12891L89.7832 8.12891L89.7832 21.4531ZM100.066 17.5068L93.9316 17.5068C93.9551 18.3389 94.21 18.9805 94.6963 19.4316C95.1885 19.8828 95.8623 20.1084 96.7178 20.1084C97.6787 20.1084 98.5605 19.8213 99.3633 19.2471L99.3633 20.8906C98.543 21.4062 97.459 21.6641 96.1113 21.6641C94.7871 21.6641 93.7471 21.2568 92.9912 20.4424C92.2412 19.6221 91.8662 18.4707 91.8662 16.9883C91.8662 15.5879 92.2793 14.4482 93.1055 13.5693C93.9375 12.6846 94.9688 12.2422 96.1992 12.2422C97.4297 12.2422 98.3818 12.6377 99.0557 13.4287C99.7295 14.2197 100.066 15.3184 100.066 16.7246L100.066 17.5068ZM98.0977 16.0654C98.0918 15.333 97.9189 14.7646 97.5791 14.3604C97.2393 13.9502 96.7705 13.7451 96.1729 13.7451C95.5869 13.7451 95.0889 13.959 94.6787 14.3867C94.2744 14.8145 94.0254 15.374 93.9316 16.0654L98.0977 16.0654Z" fill="#000000" fill-opacity="1.000000" fill-rule="evenodd"/>
</svg>
