<svg width="21.500000" height="21.500000" viewBox="0 0 21.5 21.5" fill="none" xmlns="http://www.w3.org/2000/svg" xmlns:xlink="http://www.w3.org/1999/xlink">
	<desc>
			Created with Pixso.
	</desc>
	<defs/>
	<path id="Vector" d="M0 10.75C0 16.678 4.82202 21.5 10.75 21.5C16.678 21.5 21.5 16.678 21.5 10.75C21.5 4.82202 16.678 0 10.75 0C4.82202 0 0 4.82202 0 10.75ZM1.5 10.75C1.5 5.65002 5.65002 1.5 10.75 1.5C15.85 1.5 20 5.65002 20 10.75C20 15.85 15.85 20 10.75 20C5.65002 20 1.5 15.85 1.5 10.75ZM9.49023 8.20801C9.49023 9.02429 8.82849 9.68597 8.01221 9.68597C7.19592 9.68597 6.53418 9.02429 6.53418 8.20801C6.53418 7.39166 7.19592 6.72998 8.01221 6.72998C8.82849 6.72998 9.49023 7.39166 9.49023 8.20801ZM13.4878 9.68597C14.3041 9.68597 14.9658 9.02429 14.9658 8.20801C14.9658 7.39166 14.3041 6.72998 13.4878 6.72998C12.6715 6.72998 12.0098 7.39166 12.0098 8.20801C12.0098 9.02429 12.6715 9.68597 13.4878 9.68597ZM6.09424 13.321C7.11731 14.915 8.85828 15.8651 10.7502 15.8651L10.7512 15.8691C12.6432 15.8691 14.3843 14.918 15.4093 13.324C15.6333 12.9761 15.5332 12.5121 15.1832 12.2881C14.8352 12.063 14.3712 12.1631 14.1472 12.5131C13.3993 13.6741 12.1302 14.3671 10.7512 14.3671C9.37219 14.3671 8.10327 13.6741 7.3562 12.5121C7.1322 12.162 6.66821 12.0601 6.32019 12.2861C5.97119 12.511 5.87024 12.9731 6.09424 13.321Z" fill="#1D9BF0" fill-opacity="1.000000" fill-rule="evenodd"/>
</svg>
