<svg width="22.501953" height="21.400024" viewBox="0 0 22.502 21.4" fill="none" xmlns="http://www.w3.org/2000/svg" xmlns:xlink="http://www.w3.org/1999/xlink">
	<desc>
			Created with Pixso.
	</desc>
	<defs/>
	<path id="Vector" d="M22.022 9.20599L16.4041 7.01398L14.244 0.513977C14.142 0.20697 13.854 0 13.532 0C13.21 0 12.922 0.20697 12.8199 0.513L10.66 7.013L5.04004 9.20502C4.75305 9.31702 4.56299 9.59497 4.56299 9.90503C4.56299 10.215 4.75305 10.49 5.04102 10.603L10.661 12.795L12.821 19.295C12.923 19.601 13.2111 19.808 13.533 19.808C13.855 19.808 14.1429 19.601 14.245 19.295L16.405 12.795L22.025 10.603C22.312 10.491 22.502 10.213 22.502 9.90302C22.502 9.59302 22.312 9.31799 22.024 9.20599L22.022 9.20599ZM15.532 11.526C15.324 11.606 15.162 11.776 15.092 11.986L13.532 16.681L11.972 11.988C11.902 11.778 11.7419 11.608 11.5341 11.526L7.37903 9.90601L11.533 8.284C11.741 8.20398 11.903 8.034 11.973 7.82202L13.533 3.12903L15.093 7.823C15.163 8.03497 15.323 8.20502 15.531 8.28601L19.686 9.90601L15.531 11.528L15.532 11.526ZM5.91296 2.51202L4.03296 2.51202L4.03296 0.75C4.03296 0.335999 3.69604 0 3.28296 0C2.87 0 2.53296 0.335999 2.53296 0.75L2.53296 2.51202L0.75 2.51202C0.33606 2.51202 0 2.84802 0 3.26202C0 3.67603 0.33606 4.01202 0.75 4.01202L2.53198 4.01202L2.53198 5.77399C2.53198 6.18799 2.86804 6.52399 3.28198 6.52399C3.69604 6.52399 4.03198 6.18799 4.03198 5.77399L4.03198 4.01202L5.91199 4.01202C6.32703 4.01202 6.66199 3.67603 6.66199 3.26202C6.66199 2.84802 6.32703 2.51202 5.91199 2.51202L5.91296 2.51202ZM8.448 18.134L7.34802 18.134L7.34802 17.118C7.34802 16.704 7.01294 16.368 6.59802 16.368C6.18298 16.368 5.84802 16.704 5.84802 17.118L5.84802 18.134L4.81995 18.134C4.40601 18.134 4.06995 18.47 4.06995 18.884C4.06995 19.298 4.40601 19.634 4.81995 19.634L5.84998 19.634L5.84998 20.65C5.84998 21.064 6.18506 21.4 6.59998 21.4C7.01501 21.4 7.34998 21.064 7.34998 20.65L7.34998 19.634L8.448 19.634C8.86206 19.634 9.198 19.298 9.198 18.884C9.198 18.47 8.86206 18.134 8.448 18.134Z" fill="#000000" fill-opacity="1.000000" fill-rule="nonzero"/>
</svg>
