<svg width="20.000977" height="18.971985" viewBox="0 0 20.001 18.972" fill="none" xmlns="http://www.w3.org/2000/svg" xmlns:xlink="http://www.w3.org/1999/xlink">
	<desc>
			Created with Pixso.
	</desc>
	<defs/>
	<path id="Vector" d="M18.222 6.552L16.8879 6.552C16.903 6.46198 16.916 6.37 16.916 6.27502L16.916 3.96198C16.916 2.98199 16.119 2.185 15.1379 2.185L1.5 2.185L1.5 0.75C1.5 0.335999 1.16394 0 0.75 0C0.33606 0 0 0.335999 0 0.75L0 18.222C0 18.637 0.33606 18.972 0.75 18.972C1.16394 18.972 1.5 18.637 1.5 18.222L1.5 16.788L12.056 16.788C13.036 16.788 13.834 15.991 13.834 15.011L13.834 12.698C13.834 12.603 13.8199 12.511 13.806 12.42L18.223 12.42C19.203 12.42 20.001 11.622 20.001 10.642L20.001 8.33197C20.001 7.349 19.204 6.552 18.223 6.552L18.222 6.552ZM15.14 3.685C15.292 3.685 15.417 3.80902 15.417 3.96198L15.417 6.27197C15.417 6.42603 15.292 6.552 15.139 6.552L1.5 6.552L1.5 3.68201L15.14 3.68201L15.14 3.685ZM12.333 12.699L12.333 15.011C12.333 15.164 12.208 15.288 12.0551 15.288L1.5 15.288L1.5 12.42L12.056 12.42C12.209 12.42 12.333 12.546 12.333 12.7L12.333 12.699ZM18.5 10.642C18.5 10.795 18.375 10.919 18.222 10.919L1.5 10.919L1.5 8.052L18.222 8.052C18.375 8.052 18.5 8.17603 18.5 8.32898L18.5 10.642Z" fill="#1D9BF0" fill-opacity="1.000000" fill-rule="nonzero"/>
</svg>
