<svg width="23.979004" height="16.550537" viewBox="0 0 23.979 16.5505" fill="none" xmlns="http://www.w3.org/2000/svg" xmlns:xlink="http://www.w3.org/1999/xlink">
	<desc>
			Created with Pixso.
	</desc>
	<defs/>
	<path id="Vector" d="M23.7585 11.7705C23.4666 11.4775 22.9915 11.4775 22.6985 11.7705L20.4785 13.9905L20.4785 3.75049C20.4785 1.6825 18.7955 0.000488281 16.7285 0.000488281L10.8785 0.000488281C10.4645 0.000488281 10.1285 0.336487 10.1285 0.750488C10.1285 1.16449 10.4645 1.50049 10.8785 1.50049L16.7285 1.50049C17.9685 1.50049 18.9785 2.5105 18.9785 3.75049L18.9785 13.9905L16.7585 11.7705C16.4655 11.4775 15.9905 11.4775 15.6985 11.7705C15.4065 12.0635 15.4045 12.5385 15.6985 12.8305L19.1985 16.3305C19.3435 16.4775 19.5355 16.5505 19.7285 16.5505C19.9215 16.5505 20.1115 16.4785 20.2585 16.3305L23.7585 12.8305C24.0525 12.5385 24.0525 12.0635 23.7585 11.7705ZM13.0985 15.0505L7.24854 15.0505C6.00854 15.0505 4.99854 14.0405 4.99854 12.8005L4.99854 2.56049L7.21851 4.78052C7.36646 4.92749 7.55847 5.00049 7.75049 5.00049C7.9425 5.00049 8.13452 4.92749 8.28052 4.78052C8.57349 4.48749 8.57349 4.01251 8.28052 3.72052L4.78052 0.22052C4.48755 -0.0734863 4.01245 -0.0734863 3.72046 0.22052L0.220459 3.72052C-0.0734863 4.01251 -0.0734863 4.48749 0.220459 4.78052C0.514526 5.07349 0.987549 5.07349 1.28052 4.78052L3.50049 2.56049L3.50049 12.8005C3.50049 14.8685 5.18347 16.5505 7.25049 16.5505L13.1005 16.5505C13.5145 16.5505 13.8505 16.2145 13.8505 15.8005C13.8505 15.3865 13.5135 15.0505 13.1005 15.0505L13.0985 15.0505Z" fill="#0CB345" fill-opacity="1.000000" fill-rule="nonzero"/>
</svg>
